<?xml version="1.0" encoding="UTF-8"?>
<svg id="Capa_1" xmlns="http://www.w3.org/2000/svg" version="1.1" viewBox="0 0 800 800">
  <!-- Generator: Adobe Illustrator 30.0.0, SVG Export Plug-In . SVG Version: 2.1.1 Build 123)  -->
  <path d="M436.93,365.64c-28.22-3.94-51.56-29.9-59.39-55.06l-37.34-.03.1,86.14h32.03v-35.14c13.12,18.69,37.26,33.3,64.59,34.87v-30.78Z" fill="#efeeeb"/>
  <rect x="441.55" y="310.55" width="32.8" height="86.25" fill="#efeeeb"/>
  <path d="M167.37,436.95h12.98l15.46,26.18c.8,1.46,3.58,6.64,3.58,6.64h.15s-.15-6.27-.15-8.1v-24.73h12.62v52.15h-12.98l-15.32-25.82c-.88-1.39-3.72-7-3.72-7h-.15s.15,6.71.15,8.53v24.29h-12.62v-52.15Z" fill="#efeeeb"/>
  <path d="M268.96,472.02h12.44c.56,5.03,3.84,7.13,9.79,7.13,4.05,0,8.04-1.47,8.04-5.24,0-3.98-4.05-4.82-10.9-6.5-8.67-2.03-17.82-4.68-17.82-15.17s8.67-15.38,19.85-15.38,19.22,4.89,19.71,15.38h-12.09c-.49-3.84-3.42-6.01-8.04-6.01-4.33,0-7.2,1.89-7.2,4.68,0,3.5,3.84,4.33,11.32,6.01,9.3,2.17,17.68,5.03,17.68,15.73s-8.95,16.28-20.48,16.28c-13.28,0-22.01-5.87-22.29-16.91" fill="#efeeeb"/>
  <path d="M374.06,472.02h12.44c.56,5.03,3.84,7.13,9.79,7.13,4.05,0,8.04-1.47,8.04-5.24,0-3.98-4.05-4.82-10.9-6.5-8.67-2.03-17.82-4.68-17.82-15.17s8.66-15.38,19.85-15.38,19.22,4.89,19.71,15.38h-12.09c-.49-3.84-3.42-6.01-8.04-6.01-4.33,0-7.2,1.89-7.2,4.68,0,3.5,3.84,4.33,11.32,6.01,9.3,2.17,17.68,5.03,17.68,15.73s-8.95,16.28-20.48,16.28c-13.28,0-22.01-5.87-22.29-16.91" fill="#efeeeb"/>
  <path d="M619.5,463.29c0-9.48-4.16-15.73-12.62-15.73s-12.69,6.25-12.69,15.73,4.3,15.66,12.69,15.66,12.62-6.18,12.62-15.66M581.06,463.29c0-15.61,9.99-26.17,25.75-26.17s25.82,10.56,25.82,26.17-9.99,26.17-25.82,26.17-25.75-10.56-25.75-26.17" fill="#efeeeb"/>
  <path d="M238.91,437.02c-14.75.74-24.04,11.03-24.04,26.01s9.28,25.26,24.04,26.01v-10.51c-7.21-.83-10.91-6.75-10.91-15.5s3.7-14.73,10.91-15.57v-10.43ZM266.44,463.03c0-14.61-8.82-24.78-23-25.96v10.53c6.61,1.24,9.87,7.07,9.87,15.43s-3.26,14.14-9.87,15.36v10.6c14.18-1.18,23-11.35,23-25.96" fill="#efeeeb"/>
  <polygon points="345.85 436.9 345.85 456.66 327.54 456.66 327.54 436.9 314.63 436.9 314.63 489.05 327.54 489.05 327.54 467.31 345.85 467.31 345.85 489.05 358.76 489.05 358.76 436.9 345.85 436.9" fill="#efeeeb"/>
  <polygon points="417.53 436.9 417.53 447.84 432.7 447.84 432.7 489.05 445.61 489.05 445.61 447.84 460.93 447.84 460.93 436.9 417.53 436.9" fill="#efeeeb"/>
  <path d="M464.56,469.89v-32.73h12.91v33.17c0,5.1,2.63,8.53,8.97,8.53,5.98,0,8.83-3.65,8.83-8.75v-32.95h12.91v32.73c0,12.04-7.22,19.33-21.73,19.33s-21.88-7.15-21.88-19.33" fill="#efeeeb"/>
  <path d="M535.1,478.27c8.46,0,12.84-5.33,12.84-14.88s-4.6-15.61-12.69-15.61h-7.73v30.49h7.59ZM514.6,436.98h22.25c14.44,0,24.14,10.43,24.14,26.4,0,9.19-3.21,16.56-9.04,21.01-4.09,3.06-9.34,4.74-15.9,4.74h-21.44v-52.15Z" fill="#efeeeb"/>
  <rect x="564.77" y="436.98" width="12.91" height="52.15" fill="#efeeeb"/>
</svg>